<?xml version="1.0" standalone="no"?>
<!DOCTYPE svg PUBLIC "-//W3C//DTD SVG 20010904//EN"
 "http://www.w3.org/TR/2001/REC-SVG-20010904/DTD/svg10.dtd">
<svg version="1.0" xmlns="http://www.w3.org/2000/svg"
 width="512.000000pt" height="512.000000pt" viewBox="0 0 512.000000 512.000000"
 preserveAspectRatio="xMidYMid meet">

<g transform="translate(0.000000,512.000000) scale(0.100000,-0.100000)"
fill="#000000" stroke="none">
<path d="M2367 5110 c-1092 -85 -2015 -858 -2283 -1914 -270 -1061 159 -2171
1071 -2771 426 -280 890 -418 1405 -418 223 0 360 15 558 59 964 215 1722 972
1936 1934 44 199 59 347 59 570 -1 229 -20 393 -72 605 -250 1017 -1109 1785
-2146 1920 -144 18 -393 26 -528 15z m349 -781 c345 -61 626 -313 730 -654 25
-82 27 -104 28 -250 0 -188 -16 -263 -89 -410 -116 -237 -338 -418 -595 -487
-122 -32 -338 -32 -460 0 -318 85 -570 335 -662 657 -20 69 -23 102 -22 240 0
145 3 169 28 250 102 334 370 581 706 650 80 16 256 19 336 4z m-936 -1892
c19 -7 62 -31 95 -54 202 -136 426 -203 685 -203 261 0 486 67 688 206 74 51
128 68 193 62 69 -7 125 -39 221 -128 211 -195 359 -423 451 -694 76 -223 60
-281 -128 -470 -490 -495 -1164 -694 -1860 -551 -102 21 -291 85 -401 136
-212 97 -416 241 -589 415 -168 168 -195 235 -156 380 74 273 215 518 416 720
123 124 168 160 222 180 48 17 117 17 163 1z"/>
</g>
</svg>
