<svg width="48" height="48" viewBox="0 0 48 48" fill="none" xmlns="http://www.w3.org/2000/svg">
<path d="M44 20H42.57C42.0873 17.7597 41.2007 15.626 39.9534 13.7034L40.9705 12.6863C41.3456 12.3112 41.5563 11.8025 41.5563 11.2721C41.5563 10.7417 41.3456 10.233 40.9705 9.8579L38.1422 7.0294C37.7671 6.65434 37.2584 6.44363 36.728 6.44363C36.1976 6.44363 35.6889 6.65434 35.3138 7.0294L34.2966 8.0465C32.374 6.79928 30.2403 5.91264 28 5.43V4C28 3.46957 27.7893 2.96086 27.4142 2.58579C27.0391 2.21071 26.5304 2 26 2H22C21.4696 2 20.9609 2.21071 20.5858 2.58579C20.2107 2.96086 20 3.46957 20 4V5.43C17.7597 5.91267 15.626 6.79934 13.7034 8.0466L12.6863 7.0294C12.3112 6.65434 11.8025 6.44363 11.2721 6.44363C10.7417 6.44363 10.233 6.65434 9.8579 7.0294L7.0294 9.8578C6.65434 10.2329 6.44363 10.7416 6.44363 11.272C6.44363 11.8024 6.65434 12.3111 7.0294 12.6862L8.0465 13.7033C6.79927 15.6259 5.91263 17.7596 5.43 20H4C3.46957 20 2.96086 20.2107 2.58579 20.5858C2.21071 20.9609 2 21.4696 2 22V26C2 26.5304 2.21071 27.0391 2.58579 27.4142C2.96086 27.7893 3.46957 28 4 28H5.43C5.91267 30.2403 6.79934 32.374 8.0466 34.2966L7.0294 35.3137C6.65434 35.6888 6.44363 36.1975 6.44363 36.7279C6.44363 37.2583 6.65434 37.767 7.0294 38.1421L9.8578 40.9705C10.2329 41.3456 10.7416 41.5563 11.272 41.5563C11.8024 41.5563 12.3111 41.3456 12.6862 40.9705L13.7033 39.9534C15.6259 41.2007 17.7596 42.0873 20 42.57V44C20 44.5304 20.2107 45.0391 20.5858 45.4142C20.9609 45.7893 21.4696 46 22 46H26C26.5304 46 27.0391 45.7893 27.4142 45.4142C27.7893 45.0391 28 44.5304 28 44V42.57C30.2403 42.0873 32.374 41.2007 34.2966 39.9534L35.3137 40.9705C35.6888 41.3456 36.1975 41.5563 36.7279 41.5563C37.2583 41.5563 37.767 41.3456 38.1421 40.9705L40.9705 38.1421C41.3456 37.767 41.5563 37.2583 41.5563 36.7279C41.5563 36.1975 41.3456 35.6888 40.9705 35.3137L39.9534 34.2966C41.2007 32.374 42.0873 30.2403 42.57 28H44C44.5304 28 45.0391 27.7893 45.4142 27.4142C45.7893 27.0391 46 26.5304 46 26V22C46 21.4696 45.7893 20.9609 45.4142 20.5858C45.0391 20.2107 44.5304 20 44 20Z" fill="#505572"/>
<path d="M24 39C21.0333 39 18.1332 38.1203 15.6665 36.4721C13.1997 34.8238 11.2771 32.4812 10.1418 29.7403C9.0065 26.9994 8.70945 23.9834 9.28823 21.0737C9.86701 18.1639 11.2956 15.4912 13.3934 13.3934C15.4912 11.2956 18.1639 9.86701 21.0737 9.28823C23.9834 8.70945 26.9994 9.0065 29.7403 10.1418C32.4812 11.2771 34.8238 13.1997 36.4721 15.6665C38.1203 18.1332 39 21.0333 39 24C38.9956 27.9769 37.4138 31.7896 34.6017 34.6017C31.7896 37.4138 27.9769 38.9956 24 39Z" fill="#3D4360"/>
<path d="M24 37C31.1797 37 37 31.1797 37 24C37 16.8203 31.1797 11 24 11C16.8203 11 11 16.8203 11 24C11 31.1797 16.8203 37 24 37Z" fill="#D3DBEF"/>
<path d="M44 19H43.3613C42.8941 17.1912 42.1734 15.4576 41.2207 13.8506L41.6782 13.3936C42.2398 12.8303 42.5551 12.0674 42.5551 11.272C42.5551 10.4766 42.2398 9.71368 41.6782 9.1504L38.85 6.3223C38.2782 5.77692 37.5183 5.47265 36.7281 5.47265C35.938 5.47265 35.1781 5.77692 34.6063 6.3223L34.1498 6.7793C32.5427 5.82665 30.8089 5.10599 29 4.6387V4C28.9991 3.20462 28.6828 2.44206 28.1204 1.87964C27.5579 1.31722 26.7954 1.00087 26 1H22C21.2046 1.00087 20.4421 1.31722 19.8796 1.87964C19.3172 2.44206 19.0009 3.20462 19 4V4.6387C17.1912 5.10602 15.4576 5.82669 13.8506 6.7793L13.3936 6.3223C12.822 5.77694 12.0623 5.47267 11.2723 5.47267C10.4822 5.47267 9.72252 5.77694 9.1509 6.3223L6.3218 9.15C5.76024 9.71328 5.44491 10.4762 5.44491 11.2716C5.44491 12.067 5.76024 12.8299 6.3218 13.3932L6.7788 13.8502C5.82626 15.4573 5.10576 17.1911 4.6387 19H4C3.20462 19.0009 2.44206 19.3172 1.87964 19.8796C1.31722 20.4421 1.00087 21.2046 1 22V26C1.00087 26.7954 1.31722 27.5579 1.87964 28.1204C2.44206 28.6828 3.20462 28.9991 4 29H4.6387C5.10595 30.8088 5.82662 32.5424 6.7793 34.1494L6.3218 34.6064C5.76024 35.1697 5.44491 35.9326 5.44491 36.728C5.44491 37.5234 5.76024 38.2863 6.3218 38.8496L9.15 41.6777C9.72181 42.2231 10.4817 42.5273 11.2718 42.5273C12.062 42.5273 12.8219 42.2231 13.3937 41.6777L13.8502 41.2207C15.4573 42.1733 17.1911 42.894 19 43.3613V44C19.0009 44.7954 19.3172 45.5579 19.8796 46.1204C20.4421 46.6828 21.2046 46.9991 22 47H26C26.7954 46.9991 27.5579 46.6828 28.1204 46.1204C28.6828 45.5579 28.9991 44.7954 29 44V43.3613C30.8088 42.894 32.5424 42.1733 34.1494 41.2207L34.6064 41.6777C35.178 42.2231 35.9377 42.5273 36.7277 42.5273C37.5178 42.5273 38.2775 42.2231 38.8491 41.6777L41.6782 38.85C42.2398 38.2867 42.5551 37.5238 42.5551 36.7284C42.5551 35.933 42.2398 35.1701 41.6782 34.6068L41.2212 34.1498C42.1737 32.5427 42.8942 30.8089 43.3613 29H44C44.7954 28.9991 45.5579 28.6828 46.1204 28.1204C46.6828 27.5579 46.9991 26.7954 47 26V22C46.9991 21.2046 46.6828 20.4421 46.1204 19.8796C45.5579 19.3172 44.7954 19.0009 44 19ZM45 26C44.9997 26.2651 44.8943 26.5193 44.7068 26.7068C44.5193 26.8943 44.2651 26.9997 44 27H42.57C42.3413 27 42.1195 27.0785 41.9416 27.2222C41.7638 27.366 41.6405 27.5664 41.5925 27.79C41.1354 29.9121 40.2953 31.9331 39.1135 33.7539C38.9893 33.946 38.9348 34.1749 38.9589 34.4024C38.9831 34.6298 39.0845 34.8422 39.2463 35.0039L40.2629 36.0205C40.4502 36.2083 40.5553 36.4628 40.5553 36.728C40.5553 36.9932 40.4502 37.2477 40.2629 37.4355L37.4338 40.2636C37.2435 40.4455 36.9903 40.5471 36.727 40.5471C36.4637 40.5471 36.2105 40.4455 36.0202 40.2636L35.0036 39.246C34.8419 39.0838 34.6294 38.9822 34.4016 38.958C34.1739 38.9338 33.9448 38.9886 33.7526 39.1132C31.9325 40.2956 29.9118 41.1359 27.79 41.5928C27.5664 41.6407 27.3659 41.7638 27.2222 41.9417C27.0784 42.1195 27 42.3413 27 42.57V44C26.9997 44.2651 26.8943 44.5193 26.7068 44.7068C26.5193 44.8943 26.2651 44.9997 26 45H22C21.7349 44.9997 21.4807 44.8943 21.2932 44.7068C21.1057 44.5193 21.0003 44.2651 21 44V42.57C21.0001 42.3413 20.9217 42.1194 20.7779 41.9415C20.6341 41.7636 20.4337 41.6404 20.21 41.5925C18.0879 41.1357 16.067 40.2954 14.2466 39.113C14.0543 38.9888 13.8253 38.9343 13.5976 38.9584C13.37 38.9826 13.1575 39.084 12.9956 39.2458L11.9795 40.2634C11.789 40.4454 11.5357 40.5469 11.2722 40.5469C11.0087 40.5469 10.7554 40.4454 10.5649 40.2634L7.7368 37.4355C7.54954 37.2477 7.44438 36.9932 7.44438 36.728C7.44438 36.4628 7.54954 36.2083 7.7368 36.0205L8.7539 35.0039C8.91567 34.8422 9.01709 34.6298 9.04126 34.4024C9.06543 34.1749 9.01087 33.946 8.8867 33.7539C7.7047 31.9331 6.86447 29.9121 6.4072 27.79C6.35918 27.5664 6.236 27.3661 6.05818 27.2223C5.88037 27.0786 5.65866 27.0001 5.43 27H4C3.73486 26.9997 3.48066 26.8943 3.29319 26.7068C3.10571 26.5193 3.00026 26.2651 3 26V22C3.00026 21.7349 3.10571 21.4807 3.29319 21.2932C3.48066 21.1057 3.73486 21.0003 4 21H5.43C5.65871 21 5.88049 20.9215 6.05837 20.7778C6.23625 20.634 6.35947 20.4336 6.4075 20.21C6.86462 18.0879 7.70468 16.0669 8.8865 14.2461C9.01067 14.054 9.06523 13.8251 9.04106 13.5976C9.01689 13.3702 8.91547 13.1578 8.7537 12.9961L7.7368 11.9795C7.54954 11.7917 7.44438 11.5372 7.44438 11.272C7.44438 11.0068 7.54954 10.7523 7.7368 10.5645L10.5659 7.7364C10.7562 7.55446 11.0094 7.45293 11.2727 7.45293C11.536 7.45293 11.7892 7.55446 11.9795 7.7364L12.9961 8.754C13.158 8.91578 13.3705 9.0172 13.5981 9.04136C13.8258 9.06553 14.0548 9.01098 14.2471 8.8868C16.0673 7.70439 18.0881 6.86409 20.21 6.4072C20.4336 6.35932 20.6341 6.23617 20.7778 6.05833C20.9216 5.88048 21 5.65869 21 5.43V4C21.0003 3.73486 21.1057 3.48066 21.2932 3.29319C21.4807 3.10571 21.7349 3.00026 22 3H26C26.2651 3.00026 26.5193 3.10571 26.7068 3.29319C26.8943 3.48066 26.9997 3.73486 27 4V5.43C26.9999 5.65875 27.0783 5.8806 27.2221 6.05851C27.3659 6.23642 27.5663 6.35961 27.79 6.4075C29.9121 6.8643 31.933 7.70456 33.7534 8.887C33.9456 9.01143 34.1747 9.06613 34.4024 9.04196C34.6301 9.01779 34.8426 8.91621 35.0044 8.7542L36.0205 7.7366C36.211 7.55464 36.4643 7.45311 36.7278 7.45311C36.9913 7.45311 37.2446 7.55464 37.4351 7.7366L40.2632 10.5647C40.4505 10.7525 40.5556 11.007 40.5556 11.2722C40.5556 11.5374 40.4505 11.7919 40.2632 11.9797L39.2461 12.9963C39.0843 13.158 38.9829 13.3704 38.9587 13.5978C38.9346 13.8253 38.9891 14.0542 39.1133 14.2463C40.2951 16.0671 41.1352 18.0881 41.5923 20.2102C41.6404 20.4338 41.7636 20.6342 41.9416 20.7779C42.1195 20.9216 42.3413 21 42.57 21H44C44.2651 21.0003 44.5193 21.1057 44.7068 21.2932C44.8943 21.4807 44.9997 21.7349 45 22V26Z" fill="#231F20"/>
<path d="M24 10C21.2311 10 18.5243 10.8211 16.222 12.3594C13.9197 13.8978 12.1253 16.0843 11.0657 18.6424C10.0061 21.2006 9.72882 24.0155 10.269 26.7313C10.8092 29.447 12.1426 31.9416 14.1005 33.8995C16.0584 35.8574 18.553 37.1908 21.2687 37.731C23.9845 38.2712 26.7994 37.9939 29.3576 36.9343C31.9157 35.8747 34.1022 34.0803 35.6406 31.778C37.1789 29.4757 38 26.7689 38 24C37.9959 20.2882 36.5195 16.7297 33.8949 14.1051C31.2703 11.4805 27.7118 10.0042 24 10ZM24 36C21.6266 36 19.3066 35.2962 17.3332 33.9776C15.3598 32.6591 13.8217 30.7849 12.9135 28.5922C12.0052 26.3995 11.7676 23.9867 12.2306 21.6589C12.6936 19.3311 13.8365 17.1929 15.5147 15.5147C17.193 13.8365 19.3312 12.6936 21.6589 12.2306C23.9867 11.7676 26.3995 12.0052 28.5922 12.9134C30.7849 13.8217 32.6591 15.3598 33.9776 17.3332C35.2962 19.3065 36 21.6266 36 24C35.9965 27.1815 34.731 30.2317 32.4814 32.4814C30.2317 34.731 27.1815 35.9965 24 36Z" fill="#231F20"/>
</svg>
