<svg xmlns="http://www.w3.org/2000/svg" xmlns:xlink="http://www.w3.org/1999/xlink" width="300" zoomAndPan="magnify" viewBox="0 0 224.87999 225" height="300" preserveAspectRatio="xMidYMid meet" version="1.0"><path fill="#ed1c24" d="M 141.214844 39.722656 C 123.492188 29.480469 101.636719 29.480469 83.914062 39.722656 C 56.46875 55.558594 47.089844 90.605469 62.917969 118.03125 L 104.046875 189.335938 C 107.804688 195.890625 117.253906 195.890625 121.011719 189.335938 L 162.140625 118.03125 C 178.003906 90.605469 168.625 55.558594 141.214844 39.722656 Z M 112.5625 118.582031 C 98.289062 118.582031 86.742188 107.027344 86.742188 92.746094 C 86.742188 78.464844 98.289062 66.90625 112.5625 66.90625 C 126.835938 66.90625 138.386719 78.464844 138.386719 92.746094 C 138.351562 106.992188 126.804688 118.582031 112.5625 118.582031 Z M 112.5625 118.582031 " fill-opacity="1" fill-rule="nonzero"/></svg>