<svg xmlns="http://www.w3.org/2000/svg" xmlns:xlink="http://www.w3.org/1999/xlink" width="300" zoomAndPan="magnify" viewBox="0 0 224.87999 225" height="300" preserveAspectRatio="xMidYMid meet" version="1.0"><defs><clipPath id="449fe3143c"><path d="M 93.867188 93.929688 L 131.011719 93.929688 L 131.011719 131.070312 L 93.867188 131.070312 Z M 93.867188 93.929688 " clip-rule="nonzero"/></clipPath><clipPath id="f53019f289"><path d="M 112.441406 93.929688 C 102.183594 93.929688 93.867188 102.242188 93.867188 112.5 C 93.867188 122.757812 102.183594 131.070312 112.441406 131.070312 C 122.695312 131.070312 131.011719 122.757812 131.011719 112.5 C 131.011719 102.242188 122.695312 93.929688 112.441406 93.929688 Z M 112.441406 93.929688 " clip-rule="nonzero"/></clipPath><clipPath id="80d37cf6ef"><path d="M 93.867188 93.929688 L 131.007812 93.929688 L 131.007812 131.070312 L 93.867188 131.070312 Z M 93.867188 93.929688 " clip-rule="nonzero"/></clipPath><clipPath id="47f14aa2a4"><path d="M 112.4375 93.929688 C 102.183594 93.929688 93.867188 102.242188 93.867188 112.5 C 93.867188 122.753906 102.183594 131.070312 112.4375 131.070312 C 122.695312 131.070312 131.007812 122.753906 131.007812 112.5 C 131.007812 102.242188 122.695312 93.929688 112.4375 93.929688 Z M 112.4375 93.929688 " clip-rule="nonzero"/></clipPath></defs><g clip-path="url(#449fe3143c)"><g clip-path="url(#f53019f289)"><path fill="#5271ff" d="M 93.867188 93.929688 L 131.011719 93.929688 L 131.011719 131.070312 L 93.867188 131.070312 Z M 93.867188 93.929688 " fill-opacity="1" fill-rule="nonzero"/></g></g><g clip-path="url(#80d37cf6ef)"><g clip-path="url(#47f14aa2a4)"><path stroke-linecap="butt" transform="matrix(0.7496, 0, 0, 0.7496, 93.86844, 93.928455)" fill="none" stroke-linejoin="miter" d="M 24.771961 0.00164471 C 11.092789 0.00164471 -0.00167039 11.090893 -0.00167039 24.775276 C -0.00167039 38.454448 11.092789 49.548908 24.771961 49.548908 C 38.456344 49.548908 49.545592 38.454448 49.545592 24.775276 C 49.545592 11.090893 38.456344 0.00164471 24.771961 0.00164471 Z M 24.771961 0.00164471 " stroke="#ffffff" stroke-width="8" stroke-opacity="1" stroke-miterlimit="4"/></g></g></svg>