<svg xmlns="http://www.w3.org/2000/svg" xmlns:xlink="http://www.w3.org/1999/xlink" width="300" zoomAndPan="magnify" viewBox="0 0 224.87999 225" height="300" preserveAspectRatio="xMidYMid meet" version="1.0"><path fill="#ed1c24" d="M 104.84375 108.53125 L 120.058594 108.53125 L 120.058594 123.332031 L 104.828125 123.332031 Z M 104.84375 97.726562 L 109.304688 97.726562 L 109.304688 102.175781 L 104.84375 102.175781 Z M 104.84375 83.03125 L 109.304688 83.03125 L 109.304688 87.484375 L 104.84375 87.484375 Z M 115.609375 97.726562 L 120.058594 97.726562 L 120.058594 102.175781 L 115.609375 102.175781 Z M 115.609375 83.03125 L 120.058594 83.03125 L 120.058594 87.484375 L 115.609375 87.484375 Z M 132.925781 74.339844 C 132.925781 73.753906 132.691406 73.179688 132.273438 72.761719 C 131.855469 72.34375 131.292969 72.109375 130.707031 72.109375 L 94.179688 72.109375 C 92.953125 72.109375 91.949219 73.113281 91.949219 74.339844 L 91.949219 123.332031 L 89.195312 123.332031 L 89.195312 127.792969 L 135.667969 127.792969 L 135.667969 123.332031 L 132.925781 123.332031 L 132.925781 74.339844 " fill-opacity="1" fill-rule="nonzero"/><path fill="#ed1c24" d="M 112.4375 142.265625 C 101.214844 142.265625 90.460938 137.816406 82.527344 129.882812 C 74.582031 121.933594 70.128906 111.179688 70.128906 99.957031 C 70.128906 88.734375 74.582031 77.96875 82.527344 70.035156 C 90.460938 62.101562 101.214844 57.636719 112.4375 57.636719 C 123.660156 57.636719 134.425781 62.101562 142.359375 70.035156 C 150.292969 77.96875 154.757812 88.734375 154.757812 99.957031 C 154.757812 111.179688 150.292969 121.933594 142.359375 129.882812 C 134.425781 137.816406 123.660156 142.265625 112.4375 142.265625 Z M 112.4375 39.003906 C 99.203125 39.003906 86.339844 43.296875 75.753906 51.257812 C 65.183594 59.21875 57.5 70.402344 53.84375 83.125 C 50.191406 95.847656 50.765625 109.40625 55.5 121.765625 C 60.238281 134.109375 68.863281 144.601562 80.085938 151.621094 L 110.792969 185.265625 C 111.210938 185.734375 111.8125 185.996094 112.4375 185.996094 C 113.0625 185.996094 113.664062 185.734375 114.09375 185.265625 L 144.800781 151.621094 C 156.011719 144.601562 164.648438 134.109375 169.375 121.765625 C 174.109375 109.40625 174.699219 95.847656 171.042969 83.125 C 167.390625 70.402344 159.691406 59.21875 149.121094 51.257812 C 138.550781 43.296875 125.671875 39.003906 112.4375 39.003906 " fill-opacity="1" fill-rule="nonzero"/></svg>