<svg xmlns="http://www.w3.org/2000/svg" viewBox="0 0 48 48"><defs><style>.cls-1{fill:#8491c1;}.cls-2{fill:#6c80ad;}.cls-3{fill:#d3dbef;}.cls-4{fill:#bfcae2;}.cls-5{fill:#505572;}.cls-6{fill:#3d4360;}.cls-7{fill:#4ac6b7;}.cls-8{fill:#29a892;}.cls-9{fill:#231f20;}</style></defs><title>Online Payment</title><g id="Online_Payment" data-name="Online Payment"><polygon class="cls-1" points="29 42 19 42 20 33 28 33 29 42"/><polygon class="cls-2" points="28 33 25 33 26 42 29 42 28 33"/><rect class="cls-3" x="2" y="4" width="44" height="31" rx="2" ry="2"/><path class="cls-4" d="M44,4H41a2,2,0,0,1,2,2V33a2,2,0,0,1-2,2h3a2,2,0,0,0,2-2V6A2,2,0,0,0,44,4Z"/><path class="cls-5" d="M33,42H15a4,4,0,0,0-4,4H37A4,4,0,0,0,33,42Z"/><path class="cls-6" d="M33,42H30a4,4,0,0,1,4,4h3A4,4,0,0,0,33,42Z"/><path class="cls-7" d="M11,3H35a2,2,0,0,1,2,2V25a2,2,0,0,1-2,2H11a0,0,0,0,1,0,0V3A0,0,0,0,1,11,3Z" transform="translate(9 39) rotate(-90)"/><path class="cls-8" d="M12,8V4a2,2,0,0,1,2-2h4A6,6,0,0,1,12,8Z"/><path class="cls-8" d="M36,4V8a6,6,0,0,1-6-6h4A2,2,0,0,1,36,4Z"/><path class="cls-5" d="M38,29H10a1,1,0,0,1,0-2H38a1,1,0,0,1,0,2Z"/><path class="cls-5" d="M26,22H21a1,1,0,0,1,0-2h5V18H22a2.0023,2.0023,0,0,1-2-2V14a2.0023,2.0023,0,0,1,2-2h5a1,1,0,0,1,0,2H22v2h4a2.0023,2.0023,0,0,1,2,2v2A2.0023,2.0023,0,0,1,26,22Z"/><path class="cls-5" d="M24,14a1,1,0,0,1-1-1V11a1,1,0,0,1,2,0v2A1,1,0,0,1,24,14Z"/><path class="cls-5" d="M24,24a1,1,0,0,1-1-1V21a1,1,0,0,1,2,0v2A1,1,0,0,1,24,24Z"/><path class="cls-9" d="M44,3H36.8157A2.9951,2.9951,0,0,0,34,1H14a2.9951,2.9951,0,0,0-2.8157,2H4A3.0033,3.0033,0,0,0,1,6V33a3.0033,3.0033,0,0,0,3,3H18.6624l-.5569,5H15a5.0059,5.0059,0,0,0-5,5,1,1,0,0,0,1,1H37a1,1,0,0,0,1-1,5.0059,5.0059,0,0,0-5-5H29.8945l-.5569-5H44a3.0033,3.0033,0,0,0,3-3V6A3.0033,3.0033,0,0,0,44,3ZM13,8.92A7.0045,7.0045,0,0,0,18.92,3H29.08A7.0045,7.0045,0,0,0,35,8.92V27H13ZM35,4V6.8989A5.0145,5.0145,0,0,1,31.1011,3H34A1.001,1.001,0,0,1,35,4ZM14,3h2.8989A5.0145,5.0145,0,0,1,13,6.8989V4A1.001,1.001,0,0,1,14,3ZM35.8286,45H12.1714A3.0051,3.0051,0,0,1,15,43H33A3.0051,3.0051,0,0,1,35.8286,45Zm-7.9463-4H20.1177l.5567-5h6.6512ZM45,33a1.001,1.001,0,0,1-1,1H4a1.001,1.001,0,0,1-1-1V6A1.001,1.001,0,0,1,4,5h7V27H10a1,1,0,0,0,0,2H38a1,1,0,0,0,0-2H37V5h7a1.001,1.001,0,0,1,1,1Z"/><path class="cls-9" d="M27,14a1,1,0,0,0,0-2H25V11a1,1,0,0,0-2,0v1H22a2.0023,2.0023,0,0,0-2,2v2a2.0023,2.0023,0,0,0,2,2h4v2H21a1,1,0,0,0,0,2h2v1a1,1,0,0,0,2,0V22h1a2.0023,2.0023,0,0,0,2-2V18a2.0023,2.0023,0,0,0-2-2H22V14Z"/></g></svg>