<svg xmlns="http://www.w3.org/2000/svg" viewBox="0 0 48 48"><defs><style>.cls-1{fill:#8491c1;}.cls-2{fill:#6c80ad;}.cls-3{fill:#d3dbef;}.cls-4{fill:#bfcae2;}.cls-5{fill:#4ac6b7;}.cls-6{fill:#29a892;}.cls-7{fill:#231f20;}</style></defs><title>Mobile Banking</title><g id="Mobile_Banking" data-name="Mobile Banking"><rect class="cls-1" x="16" y="2" width="30" height="44" rx="4" ry="4"/><path class="cls-2" d="M42,2H39a4,4,0,0,1,4,4V42a4,4,0,0,1-4,4h3a4,4,0,0,0,4-4V6A4,4,0,0,0,42,2Z"/><path class="cls-3" d="M42,5H37.618l-.7236,1.4472A1,1,0,0,1,36,7H26a1,1,0,0,1-.8944-.5528L24.382,5H20a1.0013,1.0013,0,0,0-1,1V42a1.0013,1.0013,0,0,0,1,1H42a1.0013,1.0013,0,0,0,1-1V6A1.0013,1.0013,0,0,0,42,5Z"/><path class="cls-4" d="M42,5H39a1.0013,1.0013,0,0,1,1,1V42a1.0013,1.0013,0,0,1-1,1h3a1.0013,1.0013,0,0,0,1-1V6A1.0013,1.0013,0,0,0,42,5Z"/><rect class="cls-5" x="2" y="15" width="28" height="19" rx="2" ry="2"/><rect class="cls-6" x="2" y="19" width="28" height="5"/><path class="cls-6" d="M13,30H6a1,1,0,0,1,0-2h7a1,1,0,0,1,0,2Z"/><path class="cls-7" d="M42,1H20a5.0059,5.0059,0,0,0-5,5v8H4a3.0033,3.0033,0,0,0-3,3V32a3.0033,3.0033,0,0,0,3,3H15v7a5.0059,5.0059,0,0,0,5,5H42a5.0059,5.0059,0,0,0,5-5V6A5.0059,5.0059,0,0,0,42,1ZM4,16H28a1.0007,1.0007,0,0,1,1,1v1H3V17A1.0007,1.0007,0,0,1,4,16ZM20,35h8a3.0033,3.0033,0,0,0,3-3V17a3.0033,3.0033,0,0,0-3-3H20V6h3.7637l.4414.874A1.98,1.98,0,0,0,26,8H36a1.9726,1.9726,0,0,0,1.7832-1.1l.4531-.9L42,6.0029V42H20ZM3,20H29v3H3ZM3,32V25H29v7a1.0007,1.0007,0,0,1-1,1H4A1.0007,1.0007,0,0,1,3,32ZM45,42a3.0033,3.0033,0,0,1-3,3H20a3.0033,3.0033,0,0,1-3-3V35h1v7a2.0026,2.0026,0,0,0,2,2H42a2.0026,2.0026,0,0,0,2-2V6a2.0026,2.0026,0,0,0-2-2H37.62a1.0009,1.0009,0,0,0-.8936.55L36,6H26.0039l-.73-1.45A1.0009,1.0009,0,0,0,24.38,4H20a2.0026,2.0026,0,0,0-2,2v8H17V6a3.0033,3.0033,0,0,1,3-3H42a3.0033,3.0033,0,0,1,3,3Z"/><path class="cls-7" d="M13,28H6a1,1,0,0,0,0,2h7a1,1,0,0,0,0-2Z"/></g></svg>