<svg xmlns="http://www.w3.org/2000/svg" viewBox="0 0 48 48"><defs><style>.cls-1{fill:#8491c1;}.cls-2{fill:#cc8679;}.cls-3{fill:#bf7267;}.cls-4{fill:#d3dbef;}.cls-5{fill:#bfcae2;}.cls-6{fill:#231f20;}</style></defs><title>FInancial Strategy</title><g id="FInancial_Strategy" data-name="FInancial Strategy"><path class="cls-1" d="M24,43a.9994.9994,0,0,1-1-1V37a1,1,0,0,1,2,0v5A.9994.9994,0,0,1,24,43Z"/><path class="cls-2" d="M4,2H44a2,2,0,0,1,2,2V6a0,0,0,0,1,0,0H2A0,0,0,0,1,2,6V4A2,2,0,0,1,4,2Z"/><path class="cls-3" d="M44,2H42a2,2,0,0,1,2,2V6h2V4A2,2,0,0,0,44,2Z"/><path class="cls-2" d="M2,33H46a0,0,0,0,1,0,0v2a2,2,0,0,1-2,2H4a2,2,0,0,1-2-2V33A0,0,0,0,1,2,33Z"/><path class="cls-3" d="M44,33v2a2,2,0,0,1-2,2h2a2,2,0,0,0,2-2V33Z"/><rect class="cls-4" x="3" y="6" width="42" height="27"/><rect class="cls-5" x="43" y="6" width="2" height="27"/><path class="cls-1" d="M28,16H24a1,1,0,0,1,0-2h4a1,1,0,0,1,0,2Z"/><path class="cls-1" d="M37,20H24a1,1,0,0,1,0-2H37a1,1,0,0,1,0,2Z"/><path class="cls-1" d="M37,24H24a1,1,0,0,1,0-2H37a1,1,0,0,1,0,2Z"/><path class="cls-1" d="M16,24H11a1,1,0,0,1,0-2h5V20H12a2.0026,2.0026,0,0,1-2-2V16a2.0026,2.0026,0,0,1,2-2h5a1,1,0,0,1,0,2H12v2h4a2.0026,2.0026,0,0,1,2,2v2A2.0026,2.0026,0,0,1,16,24Z"/><path class="cls-1" d="M14,16a.9994.9994,0,0,1-1-1V13a1,1,0,0,1,2,0v2A.9994.9994,0,0,1,14,16Z"/><path class="cls-1" d="M14,26a.9994.9994,0,0,1-1-1V23a1,1,0,0,1,2,0v2A.9994.9994,0,0,1,14,26Z"/><path class="cls-1" d="M24,47a3,3,0,1,1,3-3A3.0033,3.0033,0,0,1,24,47Zm0-4a1,1,0,1,0,1,1A1.0007,1.0007,0,0,0,24,43Z"/><path class="cls-6" d="M47,6V4a3.0033,3.0033,0,0,0-3-3H4A3.0033,3.0033,0,0,0,1,4V6A.9994.9994,0,0,0,2,7V32a.9994.9994,0,0,0-1,1v2a3.0033,3.0033,0,0,0,3,3H23v3.1843a3,3,0,1,0,2,0V38H44a3.0033,3.0033,0,0,0,3-3V33a.9994.9994,0,0,0-1-1V7A.9994.9994,0,0,0,47,6ZM24,45a1,1,0,1,1,1-1A1.0007,1.0007,0,0,1,24,45ZM3,4A1.0007,1.0007,0,0,1,4,3H44a1.0007,1.0007,0,0,1,1,1V5H3ZM45,35a1.0007,1.0007,0,0,1-1,1H4a1.0007,1.0007,0,0,1-1-1V34H45Zm-1-3H4V7H44Z"/><path class="cls-6" d="M24,16h4a1,1,0,0,0,0-2H24a1,1,0,0,0,0,2Z"/><path class="cls-6" d="M24,20H37a1,1,0,0,0,0-2H24a1,1,0,0,0,0,2Z"/><path class="cls-6" d="M24,24H37a1,1,0,0,0,0-2H24a1,1,0,0,0,0,2Z"/><path class="cls-6" d="M11,22a1,1,0,0,0,0,2h2v1a1,1,0,0,0,2,0V24h1a2.0026,2.0026,0,0,0,2-2V20a2.0026,2.0026,0,0,0-2-2H12V16h5a1,1,0,0,0,0-2H15V13a1,1,0,0,0-2,0v1H12a2.0026,2.0026,0,0,0-2,2v2a2.0026,2.0026,0,0,0,2,2h4v2Z"/></g></svg>