<svg xmlns="http://www.w3.org/2000/svg" viewBox="0 0 48 48"><defs><style>.cls-1{fill:#d3dbef;}.cls-2{fill:#bfcae2;}.cls-3{fill:#cc8679;}.cls-4{fill:#bf7267;}.cls-5{fill:#8491c1;}.cls-6{fill:#231f20;}</style></defs><title>Increase report</title><g id="Increase_report" data-name="Increase report"><rect class="cls-1" x="7" y="7" width="34" height="39" rx="2" ry="2"/><path class="cls-2" d="M39,7H36a2,2,0,0,1,2,2V44a2,2,0,0,1-2,2h3a2,2,0,0,0,2-2V9A2,2,0,0,0,39,7Z"/><path class="cls-3" d="M32,5H27.8586a3.9814,3.9814,0,0,0-7.7172,0H16a1,1,0,0,0-1,1V8a1,1,0,0,0,1,1H32a1,1,0,0,0,1-1V6A1,1,0,0,0,32,5Z"/><path class="cls-4" d="M32,5H29a1,1,0,0,1,1,1V8a1,1,0,0,1-1,1h3a1,1,0,0,0,1-1V6A1,1,0,0,0,32,5Z"/><path class="cls-5" d="M33,20a1,1,0,0,1-1-1V16H29a1,1,0,0,1,0-2h4a1,1,0,0,1,1,1v4A1,1,0,0,1,33,20Z"/><path class="cls-5" d="M15.001,25a1,1,0,0,1-.5557-1.832l6-4a.9946.9946,0,0,1,.751-.1484l4.5225.9043L32.35,14.2407A1,1,0,0,1,33.65,15.7593l-7,6a.99.99,0,0,1-.8467.2212L21.21,21.062l-5.6553,3.77A.9955.9955,0,0,1,15.001,25Z"/><path class="cls-5" d="M24,33H15a1,1,0,0,1,0-2h9a1,1,0,0,1,0,2Z"/><path class="cls-5" d="M33,37H15a1,1,0,0,1,0-2H33a1,1,0,0,1,0,2Z"/><path class="cls-5" d="M33,41H15a1,1,0,0,1,0-2H33a1,1,0,0,1,0,2Z"/><path class="cls-6" d="M39,6H34a2.0023,2.0023,0,0,0-2-2H28.5684a4.9783,4.9783,0,0,0-9.1367,0H16a2.0023,2.0023,0,0,0-2,2H9A3.0033,3.0033,0,0,0,6,9V44a3.0033,3.0033,0,0,0,3,3H39a3.0033,3.0033,0,0,0,3-3V9A3.0033,3.0033,0,0,0,39,6ZM16,6h4.1416a.9994.9994,0,0,0,.9678-.749,2.9815,2.9815,0,0,1,5.7813,0A.9994.9994,0,0,0,27.8584,6H32V8H16ZM40,44a1.001,1.001,0,0,1-1,1H9a1.001,1.001,0,0,1-1-1V9A1.001,1.001,0,0,1,9,8h5a2.0023,2.0023,0,0,0,2,2H32a2.0023,2.0023,0,0,0,2-2h5a1.001,1.001,0,0,1,1,1Z"/><path class="cls-6" d="M33.9306,14.656a.9605.9605,0,0,0-.1049-.1874.9381.9381,0,0,0-.0669-.12c-.0082-.01-.02-.0132-.0287-.0225a.9848.9848,0,0,0-.1732-.1352.5445.5445,0,0,0-.3171-.1431.984.984,0,0,0-.2-.04C33.0256,14.0074,33.014,14,33,14H29a1,1,0,0,0,0,2h1.2969l-4.5782,3.9238L21.1963,19.02a.9946.9946,0,0,0-.751.1484l-6,4a1,1,0,1,0,1.1094,1.6641l5.6553-3.77,4.5938.9185a.99.99,0,0,0,.8467-.2212L32,17.1739V19a1,1,0,0,0,2,0V15a.9393.9393,0,0,0-.0276-.1371A.9642.9642,0,0,0,33.9306,14.656Z"/><path class="cls-6" d="M15,33h9a1,1,0,0,0,0-2H15a1,1,0,0,0,0,2Z"/><path class="cls-6" d="M33,35H15a1,1,0,0,0,0,2H33a1,1,0,0,0,0-2Z"/><path class="cls-6" d="M33,39H15a1,1,0,0,0,0,2H33a1,1,0,0,0,0-2Z"/></g></svg>