<svg xmlns="http://www.w3.org/2000/svg" viewBox="0 0 48 48"><defs><style>.cls-1{fill:#d3dbef;}.cls-2{fill:#bfcae2;}.cls-3{fill:#8491c1;}.cls-4{fill:#231f20;}</style></defs><title>Invoice</title><g id="Invoice"><path class="cls-1" d="M41,2h-.5a3.462,3.462,0,0,1,.4627.0466Z"/><path class="cls-1" d="M37,5.5A3.5,3.5,0,0,1,40.5,2H7.1459C5.7909,2,4,3.7908,4,6V44a2,2,0,0,0,2,2H34a3,3,0,0,0,3-3V5.5Z"/><path class="cls-1" d="M37,5.5A3.5,3.5,0,0,1,40.5,2H7.1459C5.7909,2,4,3.7908,4,6V44a2,2,0,0,0,2,2H34a3,3,0,0,0,3-3V5.5Z"/><path class="cls-2" d="M37.5,2A3.5,3.5,0,0,0,34,5.5V43a3,3,0,0,1-3,3h3a3,3,0,0,0,3-3V5.5A3.5,3.5,0,0,1,40.5,2Z"/><path class="cls-3" d="M30,37H10a1,1,0,0,1,0-2H30a1,1,0,0,1,0,2Z"/><path class="cls-3" d="M20,32H10a1,1,0,0,1,0-2H20a1,1,0,0,1,0,2Z"/><path class="cls-3" d="M30,42H10a1,1,0,0,1,0-2H30a1,1,0,0,1,0,2Z"/><path class="cls-3" d="M23,23H19a3.0033,3.0033,0,0,1-3-3,1,1,0,0,1,2,0,1.001,1.001,0,0,0,1,1h4a1.001,1.001,0,0,0,1-1V18a1.001,1.001,0,0,0-1-1H19a3.0033,3.0033,0,0,1-3-3V12a3.0033,3.0033,0,0,1,3-3h4a3.0033,3.0033,0,0,1,3,3,1,1,0,0,1-2,0,1.001,1.001,0,0,0-1-1H19a1.001,1.001,0,0,0-1,1v2a1.001,1.001,0,0,0,1,1h4a3.0033,3.0033,0,0,1,3,3v2A3.0033,3.0033,0,0,1,23,23Z"/><path class="cls-3" d="M21,11a1,1,0,0,1-1-1V8a1,1,0,0,1,2,0v2A1,1,0,0,1,21,11Z"/><path class="cls-3" d="M21,25a1,1,0,0,1-1-1V22a1,1,0,0,1,2,0v2A1,1,0,0,1,21,25Z"/><path class="cls-3" d="M40.5,2h0A3.5,3.5,0,0,1,44,5.5V17a0,0,0,0,1,0,0H37a0,0,0,0,1,0,0V5.5A3.5,3.5,0,0,1,40.5,2Z"/><path class="cls-4" d="M30,35H10a1,1,0,0,0,0,2H30a1,1,0,0,0,0-2Z"/><path class="cls-4" d="M10,32H20a1,1,0,0,0,0-2H10a1,1,0,0,0,0,2Z"/><path class="cls-4" d="M30,40H10a1,1,0,0,0,0,2H30a1,1,0,0,0,0-2Z"/><path class="cls-4" d="M23,21H19a1.001,1.001,0,0,1-1-1,1,1,0,0,0-2,0,3.0033,3.0033,0,0,0,3,3h1v1a1,1,0,0,0,2,0V23h1a3.0033,3.0033,0,0,0,3-3V18a3.0033,3.0033,0,0,0-3-3H19a1.001,1.001,0,0,1-1-1V12a1.001,1.001,0,0,1,1-1h4a1.001,1.001,0,0,1,1,1,1,1,0,0,0,2,0,3.0033,3.0033,0,0,0-3-3H22V8a1,1,0,0,0-2,0V9H19a3.0033,3.0033,0,0,0-3,3v2a3.0033,3.0033,0,0,0,3,3h4a1.001,1.001,0,0,1,1,1v2A1.001,1.001,0,0,1,23,21Z"/><path class="cls-4" d="M40.5,1H7.15C5.27,1,3,3.23,3,6V44a3.0033,3.0033,0,0,0,3,3H34a4.0043,4.0043,0,0,0,4-4V18h6a1,1,0,0,0,1-1V5.5A4.5049,4.5049,0,0,0,40.5,1ZM36,43a2.0023,2.0023,0,0,1-2,2H6a1.001,1.001,0,0,1-1-1V6C5,4.2666,6.4141,3,7.15,3H36.7618A4.4726,4.4726,0,0,0,36,5.5Zm7-27H38V5.5a2.5,2.5,0,0,1,5,0Z"/></g></svg>